<svg xmlns="http://www.w3.org/2000/svg" viewBox="0 0 24 24"
  fill="none" stroke="#2B7A78" stroke-width="1.6" stroke-linecap="round" stroke-linejoin="round">
  <!-- Gear outer shape (simplified) -->
  <path d="M12 15a3 3 0 1 0 0-6 3 3 0 0 0 0 6z"/>
  <path d="M19.4 15a1.65 1.65 0 0 0 .33 1.82l.06.06a2 2 0 1 1-2.83 2.83l-.06-.06
           a1.65 1.65 0 0 0-1.82-.33 1.65 1.65 0 0 0-1 1.51V21a2 2 0 1 1-4 0v-.09
           a1.65 1.65 0 0 0-1-1.51 1.65 1.65 0 0 0-1.82.33l-.06.06
           a2 2 0 1 1-2.83-2.83l.06-.06a1.65 1.65 0 0 0 .33-1.82
           1.65 1.65 0 0 0-1.51-1H3a2 2 0 1 1 0-4h.09
           a1.65 1.65 0 0 0 1.51-1 1.65 1.65 0 0 0-.33-1.82l-.06-.06
           a2 2 0 1 1 2.83-2.83l.06.06a1.65 1.65 0 0 0 1.82.33
           c.69-.28 1.13-.96 1.13-1.71V3a2 2 0 1 1 4 0v.09
           c0 .75.44 1.43 1.13 1.71.63.25 1.34.09 1.82-.33l.06-.06
           a2 2 0 1 1 2.83 2.83l-.06.06c-.46.46-.61 1.15-.33 1.82.28.69.96 1.13 1.71 1.13H21a2 2 0 1 1 0 4h-.09
           c-.75 0-1.43.44-1.71 1.13z"/>
</svg>